<?xml version="1.0" encoding="UTF-8" standalone="no"?>
<!-- Created with Inkscape (http://www.inkscape.org/) -->

<svg
   xmlns:dc="http://purl.org/dc/elements/1.1/"
   xmlns:cc="http://creativecommons.org/ns#"
   xmlns:rdf="http://www.w3.org/1999/02/22-rdf-syntax-ns#"
   xmlns:svg="http://www.w3.org/2000/svg"
   xmlns="http://www.w3.org/2000/svg"
   xmlns:sodipodi="http://sodipodi.sourceforge.net/DTD/sodipodi-0.dtd"
   xmlns:inkscape="http://www.inkscape.org/namespaces/inkscape"
   width="160.74776mm"
   height="140.05116mm"
   viewBox="0 0 160.74776 140.05116"
   version="1.1"
   id="svg3956"
   sodipodi:docname="moth.svg"
   inkscape:version="0.92.4 (5da689c313, 2019-01-14)">
  <defs
     id="defs3950">
    <clipPath
       clipPathUnits="userSpaceOnUse"
       id="clipPath4577">
      <path
         sodipodi:nodetypes="csscc"
         inkscape:connector-curvature="0"
         id="path4579"
         d="m 102.04162,97.476297 c -4.958825,7.754843 -7.123434,19.117113 0.29816,37.930603 4.45955,11.30481 0.0181,30.27771 20.85347,29.32336 7.51024,-0.344 16.93746,-0.7231 22.64204,-5.78458 3.22804,-15.22041 -18.60191,-41.33341 -43.79367,-61.469383 z"
         style="fill:#79543d;fill-opacity:1;stroke:#000000;stroke-width:0.26458332px;stroke-linecap:butt;stroke-linejoin:miter;stroke-opacity:1" />
    </clipPath>
    <clipPath
       clipPathUnits="userSpaceOnUse"
       id="clipPath4706">
      <path
         sodipodi:nodetypes="csscc"
         inkscape:connector-curvature="0"
         id="path4708"
         d="m 87.458738,95.167082 c 1.008734,9.914508 -1.796534,21.557308 -15.682847,34.613278 -8.344127,7.84519 -12.334017,27.75403 -29.440986,15.09976 C 36.168597,140.31881 28.4069,134.64157 25.676144,126.77522 29.158187,110.99336 58.11294,99.389501 87.458738,95.167082 Z"
         style="fill:#79543d;fill-opacity:1;stroke:#000000;stroke-width:0.26458332px;stroke-linecap:butt;stroke-linejoin:miter;stroke-opacity:1" />
    </clipPath>
    <clipPath
       clipPathUnits="userSpaceOnUse"
       id="clipPath4710">
      <path
         sodipodi:nodetypes="csscc"
         inkscape:connector-curvature="0"
         id="path4712"
         d="m 87.458738,95.167082 c 1.008734,9.914508 -1.796534,21.557308 -15.682847,34.613278 -8.344127,7.84519 -12.334017,27.75403 -29.440986,15.09976 C 36.168597,140.31881 28.4069,134.64157 25.676144,126.77522 29.158187,110.99336 58.11294,99.389501 87.458738,95.167082 Z"
         style="fill:#79543d;fill-opacity:1;stroke:#000000;stroke-width:0.26458332px;stroke-linecap:butt;stroke-linejoin:miter;stroke-opacity:1" />
    </clipPath>
    <clipPath
       clipPathUnits="userSpaceOnUse"
       id="clipPath4714">
      <path
         sodipodi:nodetypes="csscc"
         inkscape:connector-curvature="0"
         id="path4716"
         d="m 102.04162,97.476297 c -4.958825,7.754843 -7.123434,19.117113 0.29816,37.930603 4.45955,11.30481 0.0181,30.27771 20.85347,29.32336 7.51024,-0.344 16.93746,-0.7231 22.64204,-5.78458 3.22804,-15.22041 -18.60191,-41.33341 -43.79367,-61.469383 z"
         style="fill:#79543d;fill-opacity:1;stroke:#000000;stroke-width:0.26458332px;stroke-linecap:butt;stroke-linejoin:miter;stroke-opacity:1" />
    </clipPath>
    <clipPath
       clipPathUnits="userSpaceOnUse"
       id="clipPath4718">
      <path
         sodipodi:nodetypes="csssc"
         inkscape:connector-curvature="0"
         id="path4720"
         d="m 84.99171,98.151471 c -2.122797,2.684179 -9.00648,11.121089 -12.987245,16.097039 -9.1811,11.47637 -18.637726,19.88855 -25.324406,33.26191 -3.923096,7.84619 10.327092,15.97776 15.308035,17.95386 22.854446,9.06706 28.565639,-53.43443 23.003616,-67.312809 z"
         style="fill:#ef7126;fill-opacity:1;stroke:#000000;stroke-width:0.26458332px;stroke-linecap:butt;stroke-linejoin:miter;stroke-opacity:1" />
    </clipPath>
    <clipPath
       clipPathUnits="userSpaceOnUse"
       id="clipPath4722">
      <path
         sodipodi:nodetypes="cscsc"
         inkscape:connector-curvature="0"
         id="path4724"
         d="m 94.683035,98.562496 c -2.782099,9.905154 -3.079038,20.384354 -3.96875,30.616074 -1.577054,18.13614 -14.975001,41.50089 6.80357,44.22321 3.296655,0.41209 17.013595,-3.22382 18.898815,-6.61458 8.12386,-14.61158 -12.92491,-64.83673 -21.733635,-68.224704 z"
         style="fill:#ef7126;fill-opacity:1;stroke:#000000;stroke-width:0.26458332px;stroke-linecap:butt;stroke-linejoin:miter;stroke-opacity:1" />
    </clipPath>
  </defs>
  <sodipodi:namedview
     id="base"
     pagecolor="#ffffff"
     bordercolor="#666666"
     borderopacity="1.0"
     inkscape:pageopacity="0.0"
     inkscape:pageshadow="2"
     inkscape:zoom="0.7"
     inkscape:cx="49.444124"
     inkscape:cy="39.32026"
     inkscape:document-units="mm"
     inkscape:current-layer="g4575"
     showgrid="false"
     inkscape:window-width="1920"
     inkscape:window-height="1017"
     inkscape:window-x="-8"
     inkscape:window-y="760"
     inkscape:window-maximized="1"
     fit-margin-top="20"
     fit-margin-left="20"
     fit-margin-right="20"
     fit-margin-bottom="20" />
  <metadata
     id="metadata3953">
    <rdf:RDF>
      <cc:Work
         rdf:about="">
        <dc:format>image/svg+xml</dc:format>
        <dc:type
           rdf:resource="http://purl.org/dc/dcmitype/StillImage" />
        <dc:title></dc:title>
      </cc:Work>
    </rdf:RDF>
  </metadata>
  <g
     id="g4575"
     inkscape:groupmode="layer"
     inkscape:label="Layer 1 copy"
     style="display:inline"
     transform="translate(-5.5388976,-53.515636)">
    <path
       sodipodi:nodetypes="csssc"
       inkscape:connector-curvature="0"
       id="path4563"
       d="m 84.991709,98.15147 c -2.122795,2.68418 -9.00648,11.12109 -12.987245,16.09704 -9.1811,11.47637 -18.637724,19.88855 -25.324406,33.26191 -3.923096,7.84619 10.327093,15.97776 15.308036,17.95386 22.854447,9.06706 28.565638,-53.43443 23.003615,-67.31281 z"
       style="fill:#ef7126;fill-opacity:1;stroke:#000000;stroke-width:0.26458332px;stroke-linecap:butt;stroke-linejoin:miter;stroke-opacity:1" />
    <path
       sodipodi:nodetypes="cscsc"
       inkscape:connector-curvature="0"
       id="path4565"
       d="m 94.683034,98.562497 c -2.782097,9.905153 -3.079036,20.384353 -3.96875,30.616073 -1.577054,18.13614 -14.975,41.50089 6.803572,44.22321 3.296654,0.41209 17.013594,-3.22382 18.898814,-6.61458 8.12386,-14.61158 -12.92491,-64.83673 -21.733636,-68.224703 z"
       style="fill:#ef7126;fill-opacity:1;stroke:#000000;stroke-width:0.26458332px;stroke-linecap:butt;stroke-linejoin:miter;stroke-opacity:1" />
    <path
       sodipodi:nodetypes="cscsc"
       inkscape:connector-curvature="0"
       id="path4567"
       d="m 93.171129,99.129464 c -7.496506,-2.943674 -9.335502,15.242846 -10.917847,32.412326 -1.322343,14.34829 -3.311917,27.82507 -0.23245,29.19779 2.997431,1.33615 6.813847,-12.80049 11.090253,-27.49048 5.046062,-17.33386 9.736395,-35.700341 0.06004,-34.119636 z"
       style="fill:#79543d;fill-opacity:1;stroke:#000000;stroke-width:0.26458332px;stroke-linecap:butt;stroke-linejoin:miter;stroke-opacity:1" />
    <path
       sodipodi:nodetypes="csscc"
       inkscape:connector-curvature="0"
       id="path4571"
       d="m 87.458737,95.167082 c 1.008735,9.914508 -1.796533,21.557308 -15.682846,34.613278 -8.344128,7.84519 -12.334017,27.75403 -29.440986,15.09976 C 36.168596,140.31881 28.4069,134.64157 25.676144,126.77522 29.158186,110.99336 58.112941,99.389502 87.458737,95.167082 Z"
       style="fill:#79543d;fill-opacity:1;stroke:#000000;stroke-width:0.26458332px;stroke-linecap:butt;stroke-linejoin:miter;stroke-opacity:1" />
    <path
       sodipodi:nodetypes="ccc"
       inkscape:connector-curvature="0"
       id="path4573"
       d="m 97.940849,88.79982 c 8.521131,6.564155 10.874321,21.79081 -3.99446,17.25903 -16.956801,-3.2639 -8.801953,-15.445818 3.99446,-17.25903 z"
       style="fill:#79543d;fill-opacity:1;stroke:#000000;stroke-width:0.26458332px;stroke-linecap:butt;stroke-linejoin:miter;stroke-opacity:1" />
    <path
       style="fill:#351400;fill-opacity:1;stroke:#000000;stroke-width:0.26458332px;stroke-linecap:butt;stroke-linejoin:miter;stroke-opacity:1"
       d="M 83.655361,99.220548 C 79.551426,96.065524 74.769075,95.979078 69.847412,94.430841 63.900198,92.559992 49.818559,88.502572 49.818559,88.502572 47.151712,91.232461 81.708748,100.01718 83.655361,99.220548 Z"
       id="path4831"
       inkscape:connector-curvature="0"
       sodipodi:nodetypes="cssc" />
    <path
       style="display:inline;fill:#351400;fill-opacity:1;stroke:#000000;stroke-width:0.26458332px;stroke-linecap:butt;stroke-linejoin:miter;stroke-opacity:1"
       d="m 107.14732,104.76003 c 4.8146,-1.9016 10.95394,-0.33043 16.1117,-0.46208 6.23249,-0.15911 11.35968,-0.82987 17.53666,0.0382 2.42175,2.45613 -31.99673,1.72618 -33.64836,0.42385 z"
       id="path4831-6"
       inkscape:connector-curvature="0"
       sodipodi:nodetypes="cccc" />
    <path
       style="fill:#dccbc0;fill-opacity:1;stroke:#000000;stroke-width:0.26458332px;stroke-linecap:butt;stroke-linejoin:miter;stroke-opacity:1"
       d="m 89.74248,92.803109 c 3.223292,1.948474 0.864639,-1.611188 -1.062157,-3.299369 -2.246282,-1.968102 -2.394643,-0.162994 -4.800069,-2.501603 -4.504344,-4.379223 -5.078211,-10.884866 -5.64868,-12.975327 -0.763387,-2.797402 0.668076,10.683821 3.785663,14.647728 1.80499,2.294984 6.463179,2.379643 7.725243,4.128571 z"
       id="path4848"
       inkscape:connector-curvature="0"
       sodipodi:nodetypes="csssac" />
    <path
       style="display:inline;fill:#dccbc0;fill-opacity:1;stroke:#000000;stroke-width:0.26458332px;stroke-linecap:butt;stroke-linejoin:miter;stroke-opacity:1"
       d="m 103.57578,94.600841 c -3.695318,0.728542 -0.26143,-1.809738 2.12656,-2.737112 2.78393,-1.081138 2.30598,0.665805 5.36617,-0.70902 5.73048,-2.574547 8.49481,-8.491574 9.74586,-10.260854 1.67412,-2.367602 -4.28188,9.811012 -8.56718,12.469587 -2.48108,1.53924 -6.88728,0.0256 -8.67141,1.237399 z"
       id="path4848-1"
       inkscape:connector-curvature="0"
       sodipodi:nodetypes="csssac" />
  </g>
  <g
     inkscape:label="main"
     inkscape:groupmode="layer"
     id="layer1"
     style="display:none"
     transform="translate(-5.5388976,-53.515636)">
    <path
       style="fill:#ef7126;fill-opacity:1;stroke:#000000;stroke-width:0.26458332px;stroke-linecap:butt;stroke-linejoin:miter;stroke-opacity:1"
       d="m 84.991709,98.15147 c -2.122795,2.68418 -9.00648,11.12109 -12.987245,16.09704 -9.1811,11.47637 -18.637724,19.88855 -25.324406,33.26191 -3.923096,7.84619 10.327093,15.97776 15.308036,17.95386 22.854447,9.06706 28.565638,-53.43443 23.003615,-67.31281 z"
       id="path4513"
       inkscape:connector-curvature="0"
       sodipodi:nodetypes="csssc" />
    <path
       style="fill:#ef7126;fill-opacity:1;stroke:#000000;stroke-width:0.26458332px;stroke-linecap:butt;stroke-linejoin:miter;stroke-opacity:1"
       d="m 94.683034,98.562497 c -2.782097,9.905153 -3.079036,20.384353 -3.96875,30.616073 -1.577054,18.13614 -14.975,41.50089 6.803572,44.22321 3.296654,0.41209 17.013594,-3.22382 18.898814,-6.61458 8.12386,-14.61158 -12.92491,-64.83673 -21.733636,-68.224703 z"
       id="path4515"
       inkscape:connector-curvature="0"
       sodipodi:nodetypes="cscsc" />
    <path
       style="fill:#79543d;fill-opacity:1;stroke:#000000;stroke-width:0.26458332px;stroke-linecap:butt;stroke-linejoin:miter;stroke-opacity:1"
       d="m 93.171129,99.129464 c -7.496506,-2.943674 -9.335502,15.242846 -10.917847,32.412326 -1.322343,14.34829 -3.311917,27.82507 -0.23245,29.19779 2.997431,1.33615 6.813847,-12.80049 11.090253,-27.49048 5.046062,-17.33386 9.736395,-35.700341 0.06004,-34.119636 z"
       id="path4519"
       inkscape:connector-curvature="0"
       sodipodi:nodetypes="cscsc" />
    <path
       style="fill:#79543d;fill-opacity:1;stroke:#000000;stroke-width:0.26458332px;stroke-linecap:butt;stroke-linejoin:miter;stroke-opacity:1"
       d="m 87.458737,95.167082 c 1.008735,9.914508 -1.796533,21.557308 -15.682846,34.613278 -8.344128,7.84519 -12.334017,27.75403 -29.440986,15.09976 C 36.168596,140.31881 28.4069,134.64157 25.676144,126.77522 29.158186,110.99336 58.112941,99.389502 87.458737,95.167082 Z"
       id="path4507-0"
       inkscape:connector-curvature="0"
       sodipodi:nodetypes="csscc" />
    <path
       style="fill:#79543d;fill-opacity:1;stroke:#000000;stroke-width:0.26458332px;stroke-linecap:butt;stroke-linejoin:miter;stroke-opacity:1"
       d="m 97.940849,88.79982 c 8.521131,6.564155 10.874321,21.79081 -3.99446,17.25903 -16.956801,-3.2639 -8.801953,-15.445818 3.99446,-17.25903 z"
       id="path4511"
       inkscape:connector-curvature="0"
       sodipodi:nodetypes="ccc" />
    <path
       style="fill:#79543d;fill-opacity:1;stroke:#000000;stroke-width:0.26458332px;stroke-linecap:butt;stroke-linejoin:miter;stroke-opacity:1"
       d="m 102.04162,97.476296 c -4.958826,7.754844 -7.123434,19.117114 0.29816,37.930604 4.45955,11.30481 0.0181,30.27771 20.85347,29.32336 7.51024,-0.344 16.93746,-0.7231 22.64204,-5.78458 3.22804,-15.22041 -18.60191,-41.33341 -43.79367,-61.469384 z"
       id="path4507"
       inkscape:connector-curvature="0"
       sodipodi:nodetypes="csscc" />
  </g>
  <g
     style="display:inline"
     id="g4749"
     inkscape:groupmode="layer"
     inkscape:label="main copy 1"
     transform="translate(-5.5388976,-53.515636)">
    <path
       sodipodi:nodetypes="csssc"
       inkscape:connector-curvature="0"
       id="path4737"
       d="m 84.991709,98.15147 c -2.122795,2.68418 -9.00648,11.12109 -12.987245,16.09704 -9.1811,11.47637 -18.637724,19.88855 -25.324406,33.26191 -3.923096,7.84619 10.327093,15.97776 15.308036,17.95386 22.854447,9.06706 28.565638,-53.43443 23.003615,-67.31281 z"
       style="fill:#ef7126;fill-opacity:1;stroke:#000000;stroke-width:0.26458332px;stroke-linecap:butt;stroke-linejoin:miter;stroke-opacity:1" />
    <path
       sodipodi:nodetypes="cscsc"
       inkscape:connector-curvature="0"
       id="path4739"
       d="m 94.683034,98.562497 c -2.782097,9.905153 -3.079036,20.384353 -3.96875,30.616073 -1.577054,18.13614 -14.975,41.50089 6.803572,44.22321 3.296654,0.41209 17.013594,-3.22382 18.898814,-6.61458 8.12386,-14.61158 -12.92491,-64.83673 -21.733636,-68.224703 z"
       style="fill:#ef7126;fill-opacity:1;stroke:#000000;stroke-width:0.26458332px;stroke-linecap:butt;stroke-linejoin:miter;stroke-opacity:1" />
    <path
       sodipodi:nodetypes="cscsc"
       inkscape:connector-curvature="0"
       id="path4741"
       d="m 93.171129,99.129464 c -7.496506,-2.943674 -9.335502,15.242846 -10.917847,32.412326 -1.322343,14.34829 -3.311917,27.82507 -0.23245,29.19779 2.997431,1.33615 6.813847,-12.80049 11.090253,-27.49048 5.046062,-17.33386 9.736395,-35.700341 0.06004,-34.119636 z"
       style="fill:#79543d;fill-opacity:1;stroke:#000000;stroke-width:0.26458332px;stroke-linecap:butt;stroke-linejoin:miter;stroke-opacity:1" />
    <path
       sodipodi:nodetypes="csscc"
       inkscape:connector-curvature="0"
       id="path4743"
       d="m 87.458737,95.167082 c 1.008735,9.914508 -1.796533,21.557308 -15.682846,34.613278 -8.344128,7.84519 -12.334017,27.75403 -29.440986,15.09976 C 36.168596,140.31881 28.4069,134.64157 25.676144,126.77522 29.158186,110.99336 58.112941,99.389502 87.458737,95.167082 Z"
       style="fill:#79543d;fill-opacity:1;stroke:#000000;stroke-width:0.26458332px;stroke-linecap:butt;stroke-linejoin:miter;stroke-opacity:1" />
    <path
       sodipodi:nodetypes="ccc"
       inkscape:connector-curvature="0"
       id="path4745"
       d="m 97.940849,88.79982 c 8.521131,6.564155 10.874321,21.79081 -3.99446,17.25903 -16.956801,-3.2639 -8.801953,-15.445818 3.99446,-17.25903 z"
       style="fill:#79543d;fill-opacity:1;stroke:#000000;stroke-width:0.26458332px;stroke-linecap:butt;stroke-linejoin:miter;stroke-opacity:1" />
    <path
       sodipodi:nodetypes="csscc"
       inkscape:connector-curvature="0"
       id="path4747"
       d="m 102.04162,97.476296 c -4.958826,7.754844 -7.123434,19.117114 0.29816,37.930604 4.45955,11.30481 0.0181,30.27771 20.85347,29.32336 7.51024,-0.344 16.93746,-0.7231 22.64204,-5.78458 3.22804,-15.22041 -18.60191,-41.33341 -43.79367,-61.469384 z"
       style="fill:#79543d;fill-opacity:1;stroke:#000000;stroke-width:0.26458332px;stroke-linecap:butt;stroke-linejoin:miter;stroke-opacity:1" />
  </g>
  <g
     inkscape:groupmode="layer"
     id="layer11"
     inkscape:label="pattern"
     style="display:inline"
     transform="translate(-5.5388976,-53.515636)">
    <path
       style="fill:#351400;fill-opacity:1;stroke:#000000;stroke-width:0.26458332px;stroke-linecap:butt;stroke-linejoin:miter;stroke-opacity:1"
       d="m 83.343749,164.33035 c 5.21349,3.07393 10.523741,0.9126 15.686011,-0.37797 11.28833,-2.82208 20.55385,-10.29706 26.26935,1.13393 1.35233,2.70467 -1.03863,7.46422 -2.83483,9.26041 -10.29467,10.29468 -40.339787,7.05321 -39.120531,-10.01637 z"
       id="path4583"
       inkscape:connector-curvature="0"
       clip-path="url(#clipPath4722)" />
    <path
       sodipodi:nodetypes="csscc"
       inkscape:connector-curvature="0"
       id="path4747-5"
       d="m 102.04162,97.476296 c -4.958827,7.754844 -7.123435,19.117114 0.29816,37.930604 4.45955,11.30481 0.0181,30.27771 20.85347,29.32336 7.51024,-0.344 16.93746,-0.7231 22.64204,-5.78458 3.22804,-15.22041 -18.60191,-41.33341 -43.79367,-61.469384 z"
       style="display:inline;fill:#79543d;fill-opacity:1;stroke:#000000;stroke-width:0.26458332px;stroke-linecap:butt;stroke-linejoin:miter;stroke-opacity:1" />
    <path
       style="fill:#4d2b14;fill-opacity:1;stroke:#000000;stroke-width:0.26458332px;stroke-linecap:butt;stroke-linejoin:miter;stroke-opacity:1"
       d="m 102.24256,145.99851 c 5.25243,-1.87596 13.26677,0.96375 18.14286,3.40179 6.32796,3.16398 28.87575,-6.843 23.62351,-12.09524 -1.83378,-1.83378 -10.59955,6.99256 -17.00893,6.99256 -8.33942,0 -24.16715,-6.56313 -24.75744,1.70089 z"
       id="path4547"
       inkscape:connector-curvature="0"
       clip-path="url(#clipPath4577)" />
    <path
       style="fill:#351400;fill-opacity:1;stroke:#000000;stroke-width:0.26458332px;stroke-linecap:butt;stroke-linejoin:miter;stroke-opacity:1"
       d="m 47.813989,142.21875 c 3.175172,16.48185 19.642005,11.7045 27.59226,19.65476 12.401119,12.40112 -54.035887,20.01068 -27.59226,-19.65476 z"
       id="path4581"
       inkscape:connector-curvature="0"
       clip-path="url(#clipPath4718)" />
    <path
       sodipodi:nodetypes="csscc"
       inkscape:connector-curvature="0"
       id="path4743-7"
       d="m 87.458738,95.16708 c 1.008734,9.91451 -1.796532,21.55731 -15.682847,34.61328 -8.344127,7.84519 -12.334015,27.75403 -29.440985,15.09976 C 36.168597,140.31881 28.4069,134.64157 25.676144,126.77522 29.158186,110.99336 58.112943,99.3895 87.458738,95.16708 Z"
       style="display:inline;fill:#79543d;fill-opacity:1;stroke:#000000;stroke-width:0.26458332px;stroke-linecap:butt;stroke-linejoin:miter;stroke-opacity:1" />
    <path
       style="fill:#351400;fill-opacity:1;stroke:#000000;stroke-width:0.26458332px;stroke-linecap:butt;stroke-linejoin:miter;stroke-opacity:1"
       d="m 94.116071,150.53423 c -2.10237,4.02792 4.222382,5.67595 5.525886,3.01857 1.239243,-2.52636 -2.87081,-8.10542 -5.525886,-3.01857 z"
       id="path4599"
       inkscape:connector-curvature="0"
       sodipodi:nodetypes="sss" />
    <path
       style="fill:#351400;fill-opacity:1;stroke:#000000;stroke-width:0.26458332px;stroke-linecap:butt;stroke-linejoin:miter;stroke-opacity:1"
       d="m 69.35863,143.35268 c -3.401786,2.26785 0.08499,7.09704 3.470701,5.42874 3.007981,-1.48218 0.04018,-7.76933 -3.470701,-5.42874 z"
       id="path4601"
       inkscape:connector-curvature="0"
       sodipodi:nodetypes="sss" />
    <path
       style="fill:#4d2b14;fill-opacity:1;stroke:#000000;stroke-width:0.26458332px;stroke-linecap:butt;stroke-linejoin:miter;stroke-opacity:1"
       d="m 97.13988,121.99702 c 2.752539,2.74781 34.55626,16.64523 44.4122,11.71726 0.70563,-0.35281 -26.77726,-6.74778 -29.00526,-8.97578 -5.04898,-5.04898 18.42172,-7.2774 15.58711,-10.11201 -2.29234,-2.29234 -12.83417,3.2485 -21.4504,5.95425 -4.8057,1.50913 -12.234581,-1.27003 -9.54365,1.41628 z"
       id="path4603"
       inkscape:connector-curvature="0"
       sodipodi:nodetypes="scssss"
       clip-path="url(#clipPath4714)" />
    <path
       style="fill:#4d2b14;fill-opacity:1;stroke:#000000;stroke-width:0.26458332px;stroke-linecap:butt;stroke-linejoin:miter;stroke-opacity:1"
       d="m 135.32497,150.24206 c -5.27292,2.82075 0.0696,9.18706 3.56082,6.88819 3.63304,-2.39223 0.74578,-9.19201 -3.56082,-6.88819 z"
       id="path4605"
       inkscape:connector-curvature="0"
       sodipodi:nodetypes="sss" />
    <path
       style="display:inline;fill:#4d2b14;fill-opacity:1;stroke:#000000;stroke-width:0.26458332px;stroke-linecap:butt;stroke-linejoin:miter;stroke-opacity:1"
       d="m 83.232636,119.29877 c -3.790401,0.87164 -38.125996,-4.19609 -43.872882,-13.5981 -0.411445,-0.67313 26.28418,8.46736 29.354296,7.75856 6.957326,-1.60622 -11.766076,-15.933596 -7.860071,-16.835384 3.158767,-0.729252 9.162549,9.555964 15.035702,16.416464 3.275738,3.82648 11.048522,5.40631 7.342955,6.25846 z"
       id="path4603-5"
       inkscape:connector-curvature="0"
       sodipodi:nodetypes="scssss"
       clip-path="url(#clipPath4710)" />
    <path
       style="display:inline;fill:#4d2b14;fill-opacity:1;stroke:#000000;stroke-width:0.26458332px;stroke-linecap:butt;stroke-linejoin:miter;stroke-opacity:1"
       d="m 65.764054,141.56872 c -3.460206,-4.37427 -11.761568,-6.21301 -17.188692,-6.72937 -7.043068,-0.6701 -20.861787,-21.10501 -13.624372,-22.7759 2.526889,-0.58338 5.283436,11.54693 10.718899,14.94339 7.072229,4.41922 23.972835,7.24079 20.094165,14.56188 z"
       id="path4547-0"
       inkscape:connector-curvature="0"
       clip-path="url(#clipPath4706)" />
    <path
       style="display:inline;fill:#4d2b14;fill-opacity:1;stroke:#000000;stroke-width:0.26458332px;stroke-linecap:butt;stroke-linejoin:miter;stroke-opacity:1"
       d="m 30.574651,123.82887 c -5.27292,2.82075 0.0696,9.18706 3.56082,6.88819 3.63304,-2.39223 0.74578,-9.19201 -3.56082,-6.88819 z"
       id="path4605-8"
       inkscape:connector-curvature="0"
       sodipodi:nodetypes="sss" />
  </g>
  <g
     style="display:inline"
     id="g4656"
     inkscape:groupmode="layer"
     inkscape:label="main copy"
     transform="translate(-5.5388976,-53.515636)">
    <path
       sodipodi:nodetypes="cscsc"
       inkscape:connector-curvature="0"
       id="path4648"
       d="m 93.171129,99.129464 c -7.496506,-2.943674 -9.335502,15.242846 -10.917847,32.412326 -1.322343,14.34829 -3.311917,27.82507 -0.23245,29.19779 2.997431,1.33615 6.813847,-12.80049 11.090253,-27.49048 5.046062,-17.33386 9.736395,-35.700341 0.06004,-34.119636 z"
       style="fill:#79543d;fill-opacity:1;stroke:#000000;stroke-width:0.26458332px;stroke-linecap:butt;stroke-linejoin:miter;stroke-opacity:1" />
    <path
       sodipodi:nodetypes="cscsc"
       inkscape:connector-curvature="0"
       id="path4654"
       d="m 97.940849,88.79982 c 1.408778,1.085236 3.450771,2.139976 4.472421,3.570328 5.15788,7.221269 3.94368,17.471252 -8.466881,13.688702 -14.089385,-2.71197 -11.643678,-12.382685 -2.801853,-16.344764 1.799453,-0.806346 4.632424,-0.60765 6.796313,-0.914266 z"
       style="fill:#79543d;fill-opacity:1;stroke:#000000;stroke-width:0.26458332px;stroke-linecap:butt;stroke-linejoin:miter;stroke-opacity:1" />
  </g>
</svg>
